# Blender 4.0.2
# www.blender.org
mtllib flat.mtl
o Flat_Surface
v 101.000000 7.000000 100.000000
v 101.000000 0.000000 100.000000
v 101.000000 0.000000 -100.000000
v 101.000000 7.000000 -100.000000
v -98.000000 7.000000 -100.000000
v -98.000000 0.000000 -100.000000
v -98.000000 0.000000 100.000000
v -98.000000 7.000000 100.000000
vn 1.0000 -0.0000 -0.0000
vn -1.0000 -0.0000 -0.0000
vn -0.0000 -1.0000 -0.0000
vn -0.0000 -0.0000 1.0000
vn -0.0000 -0.0000 -1.0000
vn -0.0000 1.0000 -0.0000
s 0
f 1//1 2//1 3//1
f 1//1 3//1 4//1
f 5//2 6//2 7//2
f 5//2 7//2 8//2
f 2//3 7//3 6//3
f 2//3 6//3 3//3
f 8//4 7//4 2//4
f 8//4 2//4 1//4
f 4//5 3//5 6//5
f 4//5 6//5 5//5
f 4//6 5//6 8//6
f 4//6 8//6 1//6
